<svg xmlns="http://www.w3.org/2000/svg" viewBox="0 0 2352.36 1777.03"><defs><style>.cls-1{fill:#0096a3;}.cls-1,.cls-2,.cls-3,.cls-4,.cls-5,.cls-6,.cls-7{fill-rule:evenodd;}.cls-2{fill:#006473;}.cls-3{fill:#cd9c70;}.cls-4{fill:#fff;}.cls-5{fill:#b6e1e0;}.cls-6{fill:#98cdc9;}.cls-7{fill:#004958;}</style></defs><g id="Layer_2" data-name="Layer 2"><g id="Layer_1-2" data-name="Layer 1"><path class="cls-1" d="M1644.49,1423.76c-19.39-7.27-286.23-159.56-286.23-159.56s2.9-62.76,13.81-61.54,230,56.29,230,56.29l42.41,164.81Z"/><path class="cls-2" d="M1275.45,1138.36c-19.59-.14-163.77-9.29-164.51,8.38h0c-.35,8.39,14.39,12.28,22.76,12.83l140.47,9.28a15.18,15.18,0,0,0,15.89-14.61h0c.35-8.38-6.22-15.82-14.61-15.88Z"/><path class="cls-2" d="M1251.93,1110.53c-19.59-.14-163.77-9.29-164.51,8.39h0c-.35,8.38,14.39,12.27,22.76,12.82l140.48,9.28a15.18,15.18,0,0,0,15.88-14.61h0c.35-8.38-6.22-15.82-14.61-15.88Z"/><path class="cls-2" d="M1253,1055c-19.59-.14-163.77-9.29-164.51,8.38h0c-.35,8.39,14.38,12.28,22.76,12.83l140.47,9.27a15.17,15.17,0,0,0,15.88-14.6h0c.36-8.39-6.21-15.82-14.6-15.88Z"/><path class="cls-2" d="M1245.69,1082.81c-19.59-.14-163.77-9.29-164.51,8.38h0c-.36,8.39,14.38,12.28,22.75,12.83l140.48,9.28a15.18,15.18,0,0,0,15.88-14.61h0c.35-8.38-6.21-15.82-14.6-15.88Z"/><path class="cls-1" d="M1384,1207.2s-30.43-22.91-40.81-46.2-44.2-86.32-44.2-86.32-8.86-14.84-33.07-21.87c-7.72-2.25-85.26-2.46-86.22.2-2.69,7.36-3.69,35,20.66,24.62.62-.26,22.58,7.84,41.58,8.24l-9.79,39,37.86,87.85c20.53,47.22,146.44,70.09,145.42,65.86s6.94-52.59,6.94-52.59L1384,1207.2Z"/><path class="cls-3" d="M229.88,946.76,483.1,873.42V1777H40.58c0-.34,0-.68,0-1l16.71-656.69c2.42-94.88,81.41-146.16,172.57-172.57Z"/><path class="cls-3" d="M760.81,946.76,507.59,873.42V1777H950.1c0-.34,0-.68,0-1l-16.72-656.69C931,1024.45,852,973.17,760.81,946.76Z"/><path class="cls-3" d="M1406.52,241.54s5.45,103.6,40.35,152.67,25.08,132,25.08,132,106.87,78.51,147.21,69.79,96-66.52,96-66.52l97,149.39,169-153.75L1671.51,148.85l-270.44,90.51,5.45,2.18Z"/><path class="cls-4" d="M1461.91,426.23c.62,0,31.94,32.31,53,19.48l153.4-93.41,73,131.33s-38.17,80.69-84,102.5-65.43,36-191.92-53.43c-10.91-19.63,5-53-3.5-106.47Z"/><path class="cls-2" d="M1484,370.66a40.08,40.08,0,0,0-12.24-4.14,17.86,17.86,0,0,0-9.07.73,12.29,12.29,0,0,0-5.86,4.94,22.37,22.37,0,0,0-3.15,9.75,41.87,41.87,0,0,0,1.5,15.32,64.27,64.27,0,0,0,7.36,16.52,74,74,0,0,0,12,14.78v0A63.11,63.11,0,0,0,1489.17,439a40.19,40.19,0,0,0,12.22,4.15,17.86,17.86,0,0,0,9.06-.72h0a12.36,12.36,0,0,0,5.85-4.94,22.42,22.42,0,0,0,3.15-9.75,41.86,41.86,0,0,0-1.49-15.28,64.09,64.09,0,0,0-7.32-16.48l0-.09h0a73.55,73.55,0,0,0-12-14.79A63.16,63.16,0,0,0,1484,370.66Zm-10.64-10.86a47.05,47.05,0,0,1,14.55,4.86,69.89,69.89,0,0,1,16.14,11.57,80,80,0,0,1,13,16h0l.07.1a69.92,69.92,0,0,1,8,18.06,47.71,47.71,0,0,1,1.67,17.54,29.08,29.08,0,0,1-4.21,12.72,20.15,20.15,0,0,1-9.63,8h0a25.74,25.74,0,0,1-13.16,1.2,47.25,47.25,0,0,1-14.5-4.84,70.09,70.09,0,0,1-16.13-11.56,80.13,80.13,0,0,1-13-16,70.19,70.19,0,0,1-8-18.12,47.72,47.72,0,0,1-1.68-17.58,29.08,29.08,0,0,1,4.21-12.72,20.15,20.15,0,0,1,9.63-8,25.66,25.66,0,0,1,13.16-1.23Z"/><path class="cls-2" d="M1467.65,413.36c7.09-1.89,32.15-14.18,32.15-14.18s5.67,18-9.46,21.75-22.69-7.57-22.69-7.57Z"/><path class="cls-5" d="M1499.81,1262.57c118.28-263.73,219.84-593.64,466.63-757.1C2293.17,832.19,2329,1520.45,2352.36,1774h-992.8l140.25-511.43Z"/><path class="cls-6" d="M1433.38,1496l186.09-26.93s98-651.49,209.17-595.91,169.24-18.12,169.24-18.12l23,55.57s-17.23,306-76.35,556.05c-61.72,261.08-270.87,335.44-528.6,222.5-59.63-26.12-1.37-150.38,17.45-193.16Z"/><path class="cls-4" d="M1723.28,499.46c.16-.29,58-98.1,65.77-144.78a36.86,36.86,0,0,0-6.16-28.11,51.69,51.69,0,0,0-17.66-15.2,72.67,72.67,0,0,0-22.63-7.77c-11.46-1.91-22.12-.82-28.2,3.46-21.1,14.85-55.52,58.47-55.62,58.56L1647.62,367c.09-.09,41.1-50.83,62.55-65.93,7.68-5.4,20.36-6.91,33.63-4.7a79.92,79.92,0,0,1,24.94,8.58,59,59,0,0,1,20.16,17.41c6.39,9.07,9.6,20.29,7.39,33.55-8,47.88-66.4,146.78-66.56,147.07l-6.45-3.5Z"/><path class="cls-5" d="M1941.18,792.23c162.47,2,42.12,403.18,10,561.64-37.54,185.38-89.51,288-188.67,331.53-190.56,83.59-460.16-32.3-468.63-65.83-4.62-18.29-3.84-92.53,3.85-108.89l339.55-20.93c38.59-196.26,50.81-700.64,303.88-697.52Z"/><polygon class="cls-2" points="1513 394.15 1696.4 292.98 1704.92 300.73 1516.83 400.42 1513 394.15 1513 394.15"/><path class="cls-1" d="M1409.91,282.53c172.73-3.34,177.17-2.84,305.2,22.16,34,16.16,59.3,31.52,78.86,46l-1,1s23.42,46.55,103.59,54.41c61.54,6,99.57-30.94,116.48-82.12,45.17-136.68-319.27-351.26-467.08-321.18-136.14,27.71-239.5,201.18-136,279.68Z"/><path class="cls-3" d="M1706.06,315s12.53-30.61,52.72-33c25.29-1.49,33.13,38.81,29.74,71.8-2,19.43-13.12,38.66-12.78,39L1706.06,315Z"/><path class="cls-1" d="M1146.66,1509.63l204.91-7.33,6.79,171.09-223.46-87c-64.46,26-120.62-56.86-158.47-42.81-11.1,4.12-29.13,15.05-41.58,20.4-4.32,1.85-19.16,11.36-31.12,14.92-15.72,4.69-26.36,2.72-3.54-13.73,23.57-17,26.79-19.75,43.64-28.1l-3.61-3.31-35.33,16.31s-67.13,28.9-36.64,1.7,40.65-29,63.24-37.54l-3.55-3.18-35.08,16.52s-65.91,27.81-36.63,1.7,44.47-29.69,65.75-38.33a28.68,28.68,0,0,1-2.32-3.35l-33.61,15.07s-76.18,37-36.64,1.71c24.28-21.65,59-36.38,82.16-44.53,31.55-22.74,141.4,23.07,215.09,49.79Z"/><path class="cls-3" d="M738.93,342c4.43,19.89,22.7,4,23.62,19.33,6.72,111.2,39.39,127.07,106.08,171.33,0,0,12.46,14.68-6.62,24.38-23.52,12-50.13,35-21.69,63.06-9.13,19.61-34.42,18.48-31.87,18.47,6.35,6.65,9.66,16.2,8.2,25-13.19,3.3-20.42,6.16-26.79,21.14,0,0,5.93,51-24.77,51.58s-105.17-10.71-125,13.35S619.23,1019,619.23,1019L491.72,1129.55,350.87,1021.46s45.41-455.81,47.75-463,85.62-140.54,103.05-157.4S631.76,352,631.76,352l107.17-10Z"/><path class="cls-7" d="M840.11,619.86l.21.22c-9.13,19.61-34.42,18.48-31.87,18.47,6.35,6.65,9.66,16.2,8.2,25l-2.32.6c-14.71-11.29-31-35.23-31-35.23s0-.66,20.7-7.34c14.61-4.72,28.89-3.11,36-1.76Z"/><path class="cls-7" d="M773.44,369c-67.39,15.18-193.06,46.77-227,163.4,0,0-32.29-59.61-63.65-36.67s5.4,93.28,5.4,93.28S377.68,900.36,339.72,957.22c-4.64,62.43-184.75,173.2-160.92,42.8a153.11,153.11,0,0,1-70.36-5.88c-83.59-27.25-128.31-120-99.88-207.21,69.31-212.6,223.07-74.26,257.05-312.43C323.7,67.33,749.49,165.59,773.44,369Z"/><path class="cls-4" d="M42.17,1209.82S30.34,1029,130.07,978.24s239.7-80.6,239.7-80.6c-12.6,175.43,265.38,177.05,252.77,1.63,0,0,138.34,28.26,238.07,79s87.9,231.58,87.9,231.58l5.08,22s-85.6,3.94-166.3,8.09V1777H181V1238.75c-73.38-3.71-143.91-7-143.91-7l5.07-22Z"/><path class="cls-7" d="M739.92,409.46c-.13,0-44.71-5.8-73.15,32.78l-5.92-4.34c31-42.1,79.82-35.76,80-35.74l-.89,7.3Z"/><path class="cls-7" d="M746.5,464.43a27.74,27.74,0,0,1,2.9,8.69c2.15,13.37-5.49,25.72-17.06,27.58s-22.68-7.48-24.83-20.86a28.21,28.21,0,0,1-.32-3,164.64,164.64,0,0,0,39.31-12.4Z"/><polygon class="cls-1" points="1222.39 1035.09 1215.02 1029.42 1279.35 945.66 1286.72 951.33 1222.39 1035.09 1222.39 1035.09"/><polygon class="cls-1" points="1296.34 967.24 1261.49 940.47 1269.73 929.75 1304.57 956.51 1296.34 967.24 1296.34 967.24"/><polygon class="cls-1" points="1049.47 1256.07 1046.12 1253.49 1154.2 1112.78 1157.55 1115.35 1049.47 1256.07 1049.47 1256.07"/><polygon class="cls-4" points="1129.23 1179.26 1099.75 1156.61 1210.65 1012.22 1240.13 1034.87 1129.23 1179.26 1129.23 1179.26"/><path class="cls-1" d="M1276.49,1125.69c-6.85-1.11-42.65-10.87-56.3-20.47s-45.44-30.92-60.46-27.35c-34.89,8.3,60.71,69.48,65.17,77,7.81,13.24,42.89,75.79,75.08,84.77,21,5.86,46.77,16.25,62.21,22.78,8.26,3.5,13.56,5.89,13.56,5.89s1.94-41.27,4.31-55.48c2.3-13.82-31.37-42.59-40.23-57.16-9.29-15.29-42.36-23.39-63.34-30Z"/></g></g></svg>